<svg width="152" height="28" viewBox="0 0 152 28" fill="none" xmlns="http://www.w3.org/2000/svg"><path d="M2.844 24.846C.933 22.696 0 20.116 0 17.106s.933-5.59 2.844-7.74c1.912-2.151 4.43-3.25 7.507-3.25 3.59 0 6.388 1.386 8.393 4.253V0h1.911v27.474h-1.911v-3.679C16.739 26.567 13.988 28 10.35 28c-3.077 0-5.595-1.051-7.507-3.154zm15.9-3.822v-7.836c-1.353-3.01-4.616-5.208-8.067-5.208-2.517 0-4.616.86-6.248 2.627-1.678 1.768-2.47 3.919-2.47 6.499 0 2.58.792 4.778 2.47 6.498 1.679 1.72 3.73 2.58 6.248 2.58 3.544 0 6.714-2.15 8.067-5.16zm8.719 3.918c-2.099-2.055-3.17-4.683-3.17-7.836 0-3.154.932-5.782 2.797-7.789 1.865-2.102 4.29-3.153 7.273-3.153 3.404 0 6.062 1.529 7.367 3.775 1.352 2.245 2.005 4.491 2.005 6.785v.668H26.204c.046 2.628.932 4.779 2.704 6.355 1.725 1.625 4.01 2.437 6.714 2.437 2.425 0 4.663-.669 6.574-1.959v1.912C40.564 27.379 38.326 28 35.39 28c-3.217 0-5.828-1.003-7.926-3.058zm14.36-9.27c0-3.01-2.051-7.692-7.506-7.692-2.378 0-4.29.764-5.735 2.34-1.4 1.53-2.192 3.298-2.332 5.305h15.573v.047zm5.549 11.802V6.69h1.911v3.44c1.492-2.245 4.29-3.965 7.694-3.965 3.45 0 5.641 1.481 6.62 4.444 1.586-2.58 4.57-4.444 8.16-4.444 4.616 0 7.18 2.962 7.18 8.314v12.996h-1.911V14.908c0-2.915-.793-4.922-2.145-5.782-1.306-.86-2.285-1.146-3.637-1.146-1.492 0-2.89.477-4.243 1.433-1.305.956-2.331 2.15-2.984 3.488.047 1.051.093 1.768.093 2.198v12.375H62.2V14.86c0-4.587-1.912-6.833-5.689-6.833-1.398 0-2.797.43-4.15 1.338-1.305.908-2.33 2.007-3.077 3.345v14.764h-1.911zm37.86-2.628c-2.005-2.15-3.03-4.73-3.03-7.788 0-3.01 1.025-5.59 3.03-7.74 2.005-2.15 4.616-3.202 7.693-3.202 2.238 0 4.29.526 6.108 1.625v1.91c-1.912-1.146-3.87-1.72-5.921-1.72-2.565 0-4.663.86-6.435 2.629-1.725 1.768-2.564 3.918-2.564 6.498s.84 4.778 2.564 6.498c1.725 1.72 3.87 2.58 6.435 2.58 2.378 0 4.476-.668 6.294-1.959v1.96c-1.772 1.242-3.963 1.815-6.574 1.815-3.077.048-5.595-1.003-7.6-3.106zm20.142 2.628h-1.911V0h1.911v10.32c1.819-2.245 5.036-4.156 8.626-4.156 5.129 0 7.88 3.153 7.88 8.696v12.662h-1.912v-12.28c0-2.962-.886-5.065-2.285-5.972-1.352-.908-2.657-1.243-4.196-1.243-1.585 0-3.124.478-4.662 1.482-1.539.955-2.705 2.102-3.451 3.344v14.621zm32.825-9.508l.093-.048v-1.72l-.373.239c-1.026.717-2.191 1.099-3.544 1.099-1.398 0-2.611-.478-3.59-1.434-.932-.955-1.398-2.198-1.398-3.631 0-1.433.466-2.628 1.398-3.631.979-.956 2.145-1.434 3.59-1.434 1.166 0 2.239.335 3.311.956l.326.19V6.929l-.093-.047c-1.072-.622-2.331-.956-3.683-.956-1.865 0-3.451.669-4.616 1.911-1.213 1.29-1.819 2.867-1.819 4.635 0 1.816.606 3.393 1.819 4.683 1.212 1.29 2.751 1.91 4.616 1.91 1.585 0 2.89-.334 3.963-1.098zm11.983-10.082c-1.213-1.29-2.798-1.96-4.663-1.96-1.912 0-3.497.67-4.663 1.96-1.212 1.29-1.771 2.82-1.771 4.635 0 1.816.606 3.392 1.771 4.635 1.213 1.29 2.751 1.91 4.663 1.91 1.912 0 3.45-.62 4.663-1.91 1.212-1.29 1.818-2.867 1.818-4.635 0-1.816-.606-3.345-1.818-4.635zm-4.616-.43c1.398 0 2.564.478 3.497 1.433.932.956 1.398 2.198 1.398 3.632 0 1.433-.466 2.628-1.398 3.631-.933.956-2.099 1.434-3.497 1.434-1.399 0-2.518-.478-3.497-1.434-.933-.955-1.399-2.198-1.399-3.631 0-1.434.466-2.628 1.399-3.632.932-.955 2.098-1.433 3.497-1.433zm-5.642 19.399c-2.798 0-5.595-.955-8.206-2.914l.932-1.338c4.663 3.488 9.838 3.488 14.501 0l.932 1.338c-2.564 1.91-5.362 2.914-8.159 2.914z" fill="#010203"/></svg>